<mxfile host="app.diagrams.net" modified="2020-07-23T16:09:07.867Z" agent="5.0 (Macintosh; Intel Mac OS X 10_14_6) AppleWebKit/537.36 (KHTML, like Gecko) Chrome/84.0.4147.89 Safari/537.36" etag="vv1NuabJRYH5RfKIPDpF" version="13.5.1" type="github">
  <diagram id="C5RBs43oDa-KdzZeNtuy" name="Page-1">
    <mxGraphModel dx="946" dy="556" grid="1" gridSize="10" guides="1" tooltips="1" connect="1" arrows="1" fold="1" page="1" pageScale="1" pageWidth="827" pageHeight="1169" math="0" shadow="0">
      <root>
        <mxCell id="WIyWlLk6GJQsqaUBKTNV-0" />
        <mxCell id="WIyWlLk6GJQsqaUBKTNV-1" parent="WIyWlLk6GJQsqaUBKTNV-0" />
        <mxCell id="WIyWlLk6GJQsqaUBKTNV-2" value="" style="rounded=0;html=1;jettySize=auto;orthogonalLoop=1;fontSize=11;endArrow=block;endFill=0;endSize=8;strokeWidth=1;shadow=0;labelBackgroundColor=none;edgeStyle=orthogonalEdgeStyle;" parent="WIyWlLk6GJQsqaUBKTNV-1" source="WIyWlLk6GJQsqaUBKTNV-3" edge="1">
          <mxGeometry relative="1" as="geometry">
            <mxPoint x="220" y="170" as="targetPoint" />
          </mxGeometry>
        </mxCell>
        <mxCell id="WIyWlLk6GJQsqaUBKTNV-3" value="Home Page&lt;br&gt;GET &#39;/&#39;" style="rounded=1;whiteSpace=wrap;html=1;fontSize=12;glass=0;strokeWidth=1;shadow=0;" parent="WIyWlLk6GJQsqaUBKTNV-1" vertex="1">
          <mxGeometry x="160" y="80" width="120" height="40" as="geometry" />
        </mxCell>
        <mxCell id="8G_BPFZ3XdGJVhavmNy3-2" value="" style="edgeStyle=orthogonalEdgeStyle;rounded=0;orthogonalLoop=1;jettySize=auto;html=1;" edge="1" parent="WIyWlLk6GJQsqaUBKTNV-1" source="8G_BPFZ3XdGJVhavmNy3-0" target="8G_BPFZ3XdGJVhavmNy3-1">
          <mxGeometry relative="1" as="geometry" />
        </mxCell>
        <mxCell id="8G_BPFZ3XdGJVhavmNy3-0" value="Login using Google&lt;br&gt;GET &#39;/auth/google&#39;" style="rounded=1;whiteSpace=wrap;html=1;" vertex="1" parent="WIyWlLk6GJQsqaUBKTNV-1">
          <mxGeometry x="160" y="170" width="120" height="60" as="geometry" />
        </mxCell>
        <mxCell id="8G_BPFZ3XdGJVhavmNy3-4" value="" style="edgeStyle=orthogonalEdgeStyle;rounded=0;orthogonalLoop=1;jettySize=auto;html=1;" edge="1" parent="WIyWlLk6GJQsqaUBKTNV-1" source="8G_BPFZ3XdGJVhavmNy3-1" target="8G_BPFZ3XdGJVhavmNy3-3">
          <mxGeometry relative="1" as="geometry" />
        </mxCell>
        <mxCell id="8G_BPFZ3XdGJVhavmNy3-7" value="" style="edgeStyle=orthogonalEdgeStyle;rounded=0;orthogonalLoop=1;jettySize=auto;html=1;" edge="1" parent="WIyWlLk6GJQsqaUBKTNV-1" source="8G_BPFZ3XdGJVhavmNy3-1" target="8G_BPFZ3XdGJVhavmNy3-6">
          <mxGeometry relative="1" as="geometry" />
        </mxCell>
        <mxCell id="8G_BPFZ3XdGJVhavmNy3-1" value="All Questions visible&lt;br&gt;Read&lt;br&gt;GET &#39;/question&#39;" style="whiteSpace=wrap;html=1;rounded=1;" vertex="1" parent="WIyWlLk6GJQsqaUBKTNV-1">
          <mxGeometry x="160" y="310" width="120" height="60" as="geometry" />
        </mxCell>
        <mxCell id="8G_BPFZ3XdGJVhavmNy3-3" value="Link to specific question&lt;br&gt;GET &#39;/question/:id&#39;" style="whiteSpace=wrap;html=1;rounded=1;" vertex="1" parent="WIyWlLk6GJQsqaUBKTNV-1">
          <mxGeometry x="160" y="450" width="120" height="60" as="geometry" />
        </mxCell>
        <mxCell id="8G_BPFZ3XdGJVhavmNy3-6" value="create new question&lt;br&gt;Create&lt;br&gt;POST &#39;/question/create&#39;" style="whiteSpace=wrap;html=1;rounded=1;" vertex="1" parent="WIyWlLk6GJQsqaUBKTNV-1">
          <mxGeometry x="360" y="310" width="120" height="60" as="geometry" />
        </mxCell>
      </root>
    </mxGraphModel>
  </diagram>
</mxfile>
